# xmcd
#
# Track frame offsets: 
#        183
#        16388
#        34463
#        53300
#        68758
#        93145
#        108783
#        127158
#        143460
#        157968
#
# Disc length: 2527 seconds
#
# Revision: 2
# Processed by: cddbd v1.4PL0 Copyright (c) Steve Scherf et al.
# Submitted via: ExactAudioCopy v0.90a11
#
DISCID=7409dd0a
DTITLE=Crystal Gayle and Gary Morris - What If We Fall In Love?
DYEAR=1900
DGENRE=
TTITLE0=Another World
TTITLE1=What If We Fall In Love
TTITLE2=Who's Going To Love You Like Me
TTITLE3=Love Won't Let Me Quit
TTITLE4=One More Try For Love
TTITLE5=Makin' Up For Lost Time
TTITLE6=There's No Love Like Our Love
TTITLE7=All Of This and More
TTITLE8=Wanna Give My Love
TTITLE9=Reminisce
EXTD=
EXTT0=
EXTT1=
EXTT2=
EXTT3=
EXTT4=
EXTT5=
EXTT6=
EXTT7=
EXTT8=
EXTT9=
PLAYORDER=
